HIERARCHY
ROOT root
{
	OFFSET	0	13.1	24.9
	CHANNELS 6  Xposition Yposition Zposition Xrotation Yrotation Zrotation
	JOINT spine_1
	{
		OFFSET	0	9.99999	0
		CHANNELS 3  Xrotation Yrotation Zrotation
		JOINT spine_2
		{
			OFFSET	0	112	-10
			CHANNELS 3  Xrotation Yrotation Zrotation
			JOINT spine_3
			{
				OFFSET	0	206.5	19.3
				CHANNELS 3  Xrotation Yrotation Zrotation
				JOINT spine_4
				{
					OFFSET	0	110.4	14.6
					CHANNELS 3  Xrotation Yrotation Zrotation
					JOINT neck_1
					{
						OFFSET	0	71.8	-50.3
						CHANNELS 3  Xrotation Yrotation Zrotation
						JOINT neck_2
						{
							OFFSET	0	86.2	-25.8
							CHANNELS 3  Xrotation Yrotation Zrotation
							JOINT head_ee
							{
								OFFSET	0	179.8	-8.7
								CHANNELS 3  Xrotation Yrotation Zrotation
								End Site
								{
									OFFSET	1	0	0
								}
							}
						}
					}
					JOINT left_clavicle
					{
						OFFSET	-43.2	22.4	-70.8
						CHANNELS 3  Xrotation Yrotation Zrotation
						JOINT left_shoulder
						{
							OFFSET	-93.9	-5.79999	48.7
							CHANNELS 3  Xrotation Yrotation Zrotation
							JOINT left_elbow
							{
								OFFSET	-291.4	-30.8	15.2
								CHANNELS 3  Xrotation Yrotation Zrotation
								JOINT left_lowarm_twist
								{
									OFFSET	-110.7	-3.89999	13.6
									CHANNELS 3  Xrotation Yrotation Zrotation
									JOINT left_hand
									{
										OFFSET	-110.7	-3.89999	13.6
										CHANNELS 3  Xrotation Yrotation Zrotation
										JOINT left_ee
										{
											OFFSET	-80.8	-5.10001	12.1
											CHANNELS 3  Xrotation Yrotation Zrotation
											End Site
											{
												OFFSET	1	0	0
											}
										}
									}
								}
							}
						}
					}
					JOINT right_clavicle
					{
						OFFSET	43.2	22.4	-70.8
						CHANNELS 3  Xrotation Yrotation Zrotation
						JOINT right_shoulder
						{
							OFFSET	93.9	-5.79999	48.7
							CHANNELS 3  Xrotation Yrotation Zrotation
							JOINT right_elbow
							{
								OFFSET	291.4	-30.8	15.2
								CHANNELS 3  Xrotation Yrotation Zrotation
								JOINT right_lowarm_twist
								{
									OFFSET	110.7	-3.89999	13.6
									CHANNELS 3  Xrotation Yrotation Zrotation
									JOINT right_hand
									{
										OFFSET	110.7	-3.89999	13.6
										CHANNELS 3  Xrotation Yrotation Zrotation
										JOINT right_ee
										{
											OFFSET	80.8	-5.10001	12.1
											CHANNELS 3  Xrotation Yrotation Zrotation
											End Site
											{
												OFFSET	1	0	0
											}
										}
									}
								}
							}
						}
					}
				}
			}
		}
	}
	JOINT left_hip
	{
		OFFSET	-82.8	-127.5	0.300001
		CHANNELS 3  Xrotation Yrotation Zrotation
		JOINT left_knee
		{
			OFFSET	-28.2	-396.7	2.2
			CHANNELS 3  Xrotation Yrotation Zrotation
			JOINT left_ankle
			{
				OFFSET	-11.7	-411.3	35.4
				CHANNELS 3  Xrotation Yrotation Zrotation
				JOINT left_toes
				{
					OFFSET	0	-60	-88.6
					CHANNELS 3  Xrotation Yrotation Zrotation
					JOINT left_foot_ee
					{
						OFFSET	-22.5	-16.5	-42.2
						CHANNELS 3  Xrotation Yrotation Zrotation
						End Site
						{
							OFFSET	1	0	0
						}
					}
				}
			}
		}
	}
	JOINT right_hip
	{
		OFFSET	82.8	-127.5	0.300001
		CHANNELS 3  Xrotation Yrotation Zrotation
		JOINT right_knee
		{
			OFFSET	28.2	-396.7	2.2
			CHANNELS 3  Xrotation Yrotation Zrotation
			JOINT right_ankle
			{
				OFFSET	11.7	-411.3	35.4
				CHANNELS 3  Xrotation Yrotation Zrotation
				JOINT right_toes
				{
					OFFSET	0	-60	-88.6
					CHANNELS 3  Xrotation Yrotation Zrotation
					JOINT right_foot_ee
					{
						OFFSET	22.5	-16.5	-42.2
						CHANNELS 3  Xrotation Yrotation Zrotation
						End Site
						{
							OFFSET	1	0	0
						}
					}
				}
			}
		}
	}
}
MOTION
Frames: 16
Frame Time: 0.02
1575.22 753.033 -1435.98 24.1585 81.6184 -19.3743 -2.01732 -0.0750362 2.19137 -2.01467 -0.214293 2.18216 -2.02073 -0.741736 2.06344 -2.02644 -0.406626 2.15464 -17.9298 13.0295 -15.9215 -18.7093 33.6428 -9.66595 -0.0 0.0 -0.0 -3.00472 19.341 -2.21603 36.2445 -13.838 67.0715 2.2081 -47.5595 0.973052 17.9569 0.279434 -2.26744 0.972924 20.1181 14.0199 -0.0 0.0 -0.0 8.51273 16.1808 -16.3521 -18.9793 27.1466 -67.5713 0.744285 20.2387 -0.132839 44.9494 0.631411 5.56208 -0.700372 -15.1606 -1.85904 0.0 0.0 0.0 -2.28654 23.8646 -4.92991 7.51806 -0.381731 -1.0892 13.0659 -29.1386 -2.2929 -29.4241 0.0 0.0 -0.0 0.0 -0.0 14.2431 8.4845 -9.54744 -37.9562 0.341886 -5.71002 16.27 -29.934 2.44354 16.4409 -0.0 -0.0 0.0 0.0 0.0 
1560.65 749.565 -1431.07 19.2686 81.1476 -14.3028 -1.54727 -0.128893 2.0201 -1.54503 -0.25715 2.00781 -1.55259 -0.725186 1.8899 -1.55733 -0.417673 1.98066 -18.3901 11.816 -16.6886 -18.9558 31.6325 -10.8369 -0.0 0.0 -0.0 -2.50033 18.948 -1.53359 37.5715 -14.0794 67.3282 2.28987 -48.5947 1.0339 18.5354 0.276542 -2.34128 0.761765 17.7068 11.8891 -0.0 0.0 -0.0 8.04941 15.6202 -15.3713 -20.4518 27.2265 -67.841 0.724708 19.7481 -0.126145 44.0935 0.579124 5.46585 -0.444362 -16.6835 -4.06944 0.0 0.0 0.0 -2.78406 22.4382 -4.61992 6.42592 -0.317426 -0.934156 15.2227 -25.92 -2.54125 -28.0435 0.0 0.0 -0.0 0.0 -0.0 14.5737 7.92451 -9.14234 -32.3419 0.0527373 -4.89777 14.4792 -28.954 2.17342 15.256 -0.0 -0.0 0.0 0.0 0.0 
1545.83 749.23 -1427.24 14.4863 81.7977 -9.54422 -1.17765 -0.402979 1.80983 -1.17597 -0.517309 1.78054 -1.19146 -0.914038 1.61326 -1.19451 -0.647825 1.73732 -19.9065 12.488 -16.1072 -20.8085 32.2178 -9.52251 -0.0 0.0 -0.0 -1.70091 18.28 -0.439512 39.1186 -14.4036 68.0345 2.41597 -50.1116 1.12958 18.1114 0.278735 -2.28716 0.801198 17.3717 12.0168 -0.0 0.0 -0.0 7.66334 14.3429 -14.6034 -21.3653 27.5464 -67.3457 0.69726 19.0551 -0.117027 43.5074 0.544158 5.39952 -0.523418 -15.0921 -2.92585 0.0 0.0 0.0 -4.31696 22.9064 -3.84161 8.60618 -0.448736 -1.24246 13.5655 -26.9639 -2.31115 -27.8856 0.0 0.0 -0.0 0.0 -0.0 16.7195 2.33263 -7.89439 -26.3968 -0.165126 -4.0118 9.80543 -28.069 1.48566 13.3339 -0.0 -0.0 0.0 0.0 0.0 
1531.39 748.266 -1426.72 14.9203 81.479 -10.3458 -0.82146 -0.240098 1.75657 -0.819812 -0.35137 1.73774 -0.829793 -0.732455 1.61456 -0.833125 -0.468312 1.70994 -20.6372 12.6264 -15.5693 -21.6737 32.0219 -8.73634 -0.0 0.0 -0.0 -0.659088 18.1101 1.11815 40.11 -14.2026 68.0887 2.4593 -50.6116 1.16295 18.3697 0.277447 -2.32014 0.509609 16.6863 9.95416 -0.0 0.0 -0.0 7.26657 12.5044 -13.8429 -22.2283 26.9749 -67.3667 0.675275 18.4958 -0.109951 43.021 0.515651 5.34419 -0.432797 -15.2641 -3.55836 0.0 0.0 0.0 -4.01625 24.5705 -3.80564 6.02675 -0.294664 -0.877193 14.4976 -23.7898 -2.37233 -27.6835 0.0 0.0 -0.0 0.0 -0.0 18.0308 1.22839 -7.86391 -20.5428 -0.288791 -3.12237 7.57938 -27.2462 1.15 11.168 -0.0 -0.0 0.0 0.0 0.0 
1520.26 744.203 -1424.7 6.92622 80.9069 -2.97451 -0.606914 -0.139864 1.74985 -0.605245 -0.250911 1.73741 -0.612125 -0.628224 1.6392 -0.615693 -0.3615 1.71782 -20.3495 12.1148 -16.2817 -21.2096 31.4768 -9.76088 -0.0 0.0 -0.0 -0.874652 18.8229 0.887971 40.5349 -14.642 68.5115 2.71335 -53.3418 1.36313 18.6902 0.275642 -2.36102 0.898885 15.0433 11.8057 -0.0 0.0 -0.0 7.03471 11.9899 -13.372 -23.0698 26.8786 -67.5873 0.649685 17.8401 -0.101972 42.5311 0.487418 5.28823 -0.450198 -15.5112 -3.55239 0.0 0.0 0.0 -3.62979 24.0296 -3.18393 6.56224 -0.32529 -0.953574 8.8871 -25.0751 -1.5121 -27.9866 0.0 0.0 -0.0 0.0 -0.0 19.8938 -0.249836 -7.92819 -12.6626 -0.310894 -1.91445 4.30133 -22.4736 0.642214 9.31028 -0.0 -0.0 0.0 0.0 0.0 
1509.55 740.842 -1427.26 3.64926 80.6326 0.165505 -0.455529 -0.00174151 1.68514 -0.453955 -0.108952 1.68162 -0.456381 -0.472994 1.61742 -0.45997 -0.211655 1.6718 -18.6132 12.8934 -16.1441 -19.4444 33.3384 -9.73261 -0.0 0.0 -0.0 -0.784624 18.3101 0.954234 41.1474 -15.2692 68.7875 2.83437 -54.5305 1.46097 18.9022 0.274323 -2.38807 1.29408 14.0162 13.9739 -0.0 0.0 -0.0 6.73394 10.975 -12.7808 -23.6024 26.8228 -67.7471 0.679337 18.5994 -0.111243 42.644 0.493882 5.30115 -0.0490309 -15.4372 -6.00764 0.0 0.0 0.0 -3.17969 24.8 -3.35625 4.09654 -0.190242 -0.599616 19.6694 -23.1086 -3.11207 -25.4174 0.0 0.0 -0.0 0.0 -0.0 20.7572 -0.797424 -7.93374 -5.6337 -0.190618 -0.843248 0.850593 -10.3809 0.124297 6.20527 -0.0 -0.0 0.0 0.0 0.0 
1496.99 739.543 -1423.2 0.710227 79.5448 2.538 -0.287621 0.0957225 1.63393 -0.286136 -0.00842828 1.63671 -0.285617 -0.360295 1.59659 -0.289159 -0.103657 1.63344 -20.3105 12.8785 -15.4719 -21.373 32.5377 -8.6002 -0.0 0.0 -0.0 -0.225726 17.9639 1.75916 41.0817 -15.1699 68.6844 2.88551 -55.0129 1.50274 20.1607 0.26443 -2.54852 1.44612 11.483 14.0738 -0.0 0.0 -0.0 6.72426 10.5649 -12.7794 -22.9626 27.3962 -67.2096 0.601484 16.592 -0.0877046 42.1274 0.464517 5.24195 -0.153311 -21.0544 -7.55938 0.0 0.0 0.0 -2.93727 25.1389 -3.21123 0.759726 -0.0320291 -0.112184 20.9698 -23.7736 -3.31632 -22.9132 0.0 0.0 -0.0 0.0 -0.0 20.1847 -0.519154 -7.96699 3.05111 0.137616 0.447884 -1.32308 -2.14729 -0.195402 2.47232 -0.0 -0.0 0.0 0.0 0.0 
1485.61 739.27 -1423.1 0.146888 78.9728 3.01913 -0.280198 0.0860934 1.61977 -0.278739 -0.0171377 1.62197 -0.278487 -0.365435 1.58037 -0.281955 -0.111293 1.61824 -20.234 13.4991 -15.1223 -21.4481 33.5652 -7.9575 -0.0 0.0 -0.0 0.0287288 17.0572 2.04456 41.9495 -15.145 68.6787 2.99956 -56.0482 1.59678 20.6771 0.259351 -2.61428 1.56713 9.29371 14.0882 -0.0 0.0 -0.0 6.53811 9.47033 -12.4357 -23.1428 27.434 -67.0464 0.650149 17.852 -0.102114 41.9428 0.454154 5.22073 0.138733 -21.5257 -9.47058 0.0 0.0 0.0 -2.71765 26.7196 -3.46773 -0.491674 0.0199331 0.0728196 21.0631 -23.0491 -3.30478 -21.9586 0.0 0.0 -0.0 0.0 -0.0 21.4693 -1.09101 -7.87453 6.44709 0.318644 0.937173 -3.75345 6.43053 -0.573286 -0.784737 0.0 0.0 0.0 0.0 0.0 
1468.83 737.491 -1426.7 4.16054 78.1418 -0.791007 -0.399376 0.16924 1.6007 -0.397953 0.067054 1.60823 -0.395232 -0.283455 1.58447 -0.398734 -0.029693 1.60935 -19.4066 13.3035 -15.6141 -20.4518 33.646 -8.77758 -0.0 0.0 -0.0 -0.503673 16.8198 1.19047 41.1635 -15.8155 68.7182 3.05477 -56.5302 1.6427 21.192 0.253699 -2.6798 1.87225 6.51914 15.1226 -0.0 0.0 -0.0 6.42976 8.76609 -12.2386 -22.7496 27.6376 -67.0447 0.608828 16.7832 -0.0898137 41.575 0.43371 5.17836 0.255464 -23.811 -10.9801 0.0 0.0 0.0 -4.52601 27.9604 -3.34554 -2.08188 0.0801042 0.309439 24.4629 -24.8232 -3.83109 -20.0373 0.0 0.0 -0.0 0.0 -0.0 22.5495 -1.34623 -8.33435 6.60022 0.32749 0.958982 -2.02388 12.3001 -0.318273 -2.18445 0.0 0.0 0.0 0.0 0.0 
1449.41 736.623 -1432.15 3.79591 77.8111 -0.672695 -0.453001 0.148544 1.58564 -0.451604 0.0473575 1.59187 -0.449463 -0.300621 1.56395 -0.452873 -0.0498832 1.5918 -19.0328 13.3666 -15.8575 -20.0334 33.9852 -9.09237 -0.0 0.0 -0.0 -0.716905 16.4786 0.81367 40.7956 -16.1262 68.745 3.1452 -57.294 1.71847 21.7826 0.246488 -2.7549 2.09339 4.44757 15.8577 -0.0 0.0 -0.0 6.36409 7.87156 -12.138 -22.773 27.7592 -67.0673 0.612793 16.8863 -0.090962 41.4731 0.428095 5.1666 0.462062 -25.2532 -12.6764 0.0 0.0 0.0 -5.66999 28.4857 -3.5877 -3.39116 0.124695 0.505422 26.8199 -26.6502 -4.22081 -18.232 0.0 0.0 -0.0 0.0 -0.0 23.6528 -1.35922 -8.22219 6.7567 0.336589 0.981242 -2.1851 17.1655 -0.356532 -3.83848 0.0 0.0 0.0 0.0 0.0 
1430.67 732.044 -1434.85 5.43387 76.8515 -2.47403 -0.445568 0.181439 1.63606 -0.444082 0.0769789 1.64428 -0.44097 -0.282884 1.6216 -0.44464 -0.0232681 1.64592 -18.5755 13.6558 -15.9707 -19.5726 34.7075 -9.19958 -0.0 0.0 -0.0 -1.09802 16.5732 0.231077 40.3314 -16.0516 68.444 3.17014 -57.4992 1.73948 21.9041 0.244909 -2.77033 2.25034 2.99832 16.3882 -0.0 0.0 -0.0 6.43711 6.72215 -12.3322 -22.5322 27.7843 -66.7629 0.628399 17.291 -0.0955476 41.4741 0.42815 5.16671 0.659639 -26.1644 -14.1162 0.0 0.0 0.0 -7.26601 29.5853 -3.47151 -4.72541 0.165512 0.706117 28.4079 -27.9468 -4.48952 -17.388 0.0 0.0 -0.0 0.0 -0.0 24.203 -1.45362 -8.11988 6.8428 0.341621 0.99348 -2.29825 20.0518 -0.384902 -5.03975 0.0 0.0 0.0 0.0 0.0 
1420.3 730.131 -1434.37 6.8195 76.7797 -4.21415 -0.542361 0.195555 1.82704 -0.540507 0.0789196 1.83577 -0.536815 -0.325731 1.80838 -0.541377 -0.0360942 1.83712 -19.0179 14.2715 -15.9249 -20.2246 35.7481 -8.69212 -0.0 0.0 -0.0 -1.36897 16.0308 -0.273877 39.3455 -16.9396 68.9647 3.2715 -58.3099 1.82535 22.0573 0.242872 -2.78979 2.45814 2.09369 17.484 -0.0 0.0 -0.0 6.52778 6.76812 -12.5184 -22.1955 27.8191 -66.5743 0.622061 17.1268 -0.0936726 41.3739 0.422645 5.15513 0.721466 -26.9614 -14.7231 0.0 0.0 0.0 -7.26147 31.9587 -3.29834 -5.84786 0.196221 0.875636 28.4202 -27.1662 -4.45054 -17.1246 0.0 0.0 -0.0 0.0 -0.0 25.1683 -1.90977 -7.72359 7.55843 0.384164 1.09491 -2.36899 18.0511 -0.389651 -6.46966 0.0 0.0 0.0 0.0 0.0 
1406.99 723.041 -1438.56 7.38102 77.8386 -4.8649 -0.611359 0.0378469 1.74731 -0.609664 -0.0733983 1.74618 -0.610965 -0.456921 1.68695 -0.614889 -0.184807 1.73792 -18.7501 13.1864 -16.8586 -19.627 34.2421 -10.23 -0.0 0.0 -0.0 -1.31247 15.6309 -0.244264 38.4544 -18.2082 68.6169 3.23188 -57.9974 1.79169 22.0966 0.24234 -2.79479 2.48261 1.07918 17.2594 -0.0 0.0 -0.0 6.75087 5.64209 -13.0132 -21.4972 27.3054 -66.0685 0.619664 17.0647 -0.0929678 41.9945 0.45705 5.22668 0.784515 -27.1979 -15.1579 0.0 0.0 0.0 -7.99211 32.2219 -3.4321 -6.58314 0.214533 0.986988 30.6745 -30.0617 -4.89451 -15.4355 0.0 0.0 -0.0 0.0 -0.0 27.0832 -1.83001 -7.60096 6.42026 0.3171 0.93335 -2.72074 21.3685 -0.462035 -6.62946 0.0 0.0 0.0 0.0 0.0 
1393.84 718.604 -1440.86 5.32213 77.4375 -2.86144 -0.662332 -0.0493118 1.79372 -0.660557 -0.163332 1.78695 -0.664748 -0.555282 1.70635 -0.668703 -0.278873 1.7726 -18.662 12.8853 -17.5754 -19.4245 34.0739 -11.0963 -0.0 0.0 -0.0 -1.52507 15.1272 -0.659731 37.539 -19.2935 68.6368 3.24684 -58.1161 1.80439 22.1305 0.24188 -2.79909 2.56232 0.45526 17.5716 -0.0 0.0 -0.0 6.94184 4.88724 -13.4241 -20.7887 26.9978 -65.466 0.634292 17.4433 -0.0973067 42.3909 0.47943 5.27218 0.880512 -27.3746 -15.7624 0.0 0.0 0.0 -8.15461 33.4452 -3.582 -7.08177 0.226137 1.06263 31.4548 -30.5949 -5.02392 -14.972 0.0 0.0 -0.0 0.0 -0.0 28.6205 -2.0762 -7.63509 5.93325 0.289391 0.863827 -3.37304 20.5545 -0.569111 -7.15568 0.0 0.0 0.0 0.0 0.0 
1376.35 718.098 -1443.22 2.74851 77.0566 -0.669496 -0.758629 -0.128846 1.85296 -0.756752 -0.246473 1.84101 -0.76377 -0.651389 1.7395 -0.767803 -0.368541 1.82051 -17.9495 12.3395 -18.2423 -18.4674 33.5912 -12.2239 -0.0 0.0 -0.0 -1.90014 15.0722 -1.27007 36.5698 -20.559 69.6911 3.11629 -57.0532 1.69418 22.0103 0.243502 -2.78383 2.62159 0.0566585 17.8297 -0.0 0.0 -0.0 7.03408 3.03853 -13.6429 -20.3528 26.4776 -65.2937 0.640018 17.5911 -0.0990303 42.6697 0.495359 5.30409 0.94089 -27.5904 -16.1734 0.0 0.0 0.0 -8.50467 35.1281 -3.57521 -7.64839 0.238523 1.1487 32.3056 -29.2646 -5.04228 -15.0527 0.0 0.0 -0.0 0.0 -0.0 29.5611 -2.28735 -7.60194 5.526 0.266674 0.805515 -7.0633 18.1301 -1.17431 -8.88586 0.0 0.0 0.0 0.0 0.0 
1352.26 714.903 -1448.69 0.388591 76.7846 1.70436 -0.826837 -0.1847 1.9002 -0.82488 -0.305218 1.8846 -0.834017 -0.72059 1.76798 -0.838118 -0.432378 1.85956 -17.7821 12.3538 -18.2506 -18.2801 33.6694 -12.2775 -0.0 0.0 -0.0 -1.82322 14.3185 -1.26865 34.8681 -20.9067 69.7287 3.17945 -57.5752 1.74734 21.9822 0.243877 -2.78026 2.70523 0.0411986 18.4126 -0.0 0.0 -0.0 7.15887 2.35169 -13.9025 -21.0725 26.3054 -64.9035 0.648529 17.8103 -0.101618 42.9622 0.512239 5.33749 1.0541 -27.6771 -16.8502 0.0 0.0 0.0 -10.1052 35.6232 -3.26223 -7.69038 0.239407 1.15508 32.6092 -29.4818 -5.09143 -14.7445 0.0 0.0 -0.0 0.0 -0.0 30.454 -2.35693 -7.69487 4.15859 0.193453 0.608593 -5.25996 19.2075 -0.879906 -8.30701 0.0 0.0 0.0 0.0 0.0 
